<mxfile host="app.diagrams.net" agent="Mozilla/5.0 (Windows NT 10.0; Win64; x64) AppleWebKit/537.36 (KHTML, like Gecko) Chrome/135.0.0.0 Safari/537.36" version="26.2.12">
  <diagram name="PÃ¡gina-1" id="p_EjJ1JYR_sdpqfyvXWg">
    <mxGraphModel dx="828" dy="1207" grid="1" gridSize="10" guides="1" tooltips="1" connect="1" arrows="1" fold="1" page="1" pageScale="1" pageWidth="827" pageHeight="1169" math="0" shadow="0">
      <root>
        <mxCell id="0" />
        <mxCell id="1" parent="0" />
        <mxCell id="6tXLckfgHRD67vPBt4hG-1" value="Excursion" style="swimlane;fontStyle=1;align=center;verticalAlign=top;childLayout=stackLayout;horizontal=1;startSize=26;horizontalStack=0;resizeParent=1;resizeParentMax=0;resizeLast=0;collapsible=1;marginBottom=0;whiteSpace=wrap;html=1;" vertex="1" parent="1">
          <mxGeometry x="50" y="200" width="230" height="586" as="geometry" />
        </mxCell>
        <mxCell id="6tXLckfgHRD67vPBt4hG-2" value="- nombre:String" style="text;strokeColor=none;fillColor=none;align=left;verticalAlign=top;spacingLeft=4;spacingRight=4;overflow=hidden;rotatable=0;points=[[0,0.5],[1,0.5]];portConstraint=eastwest;whiteSpace=wrap;html=1;" vertex="1" parent="6tXLckfgHRD67vPBt4hG-1">
          <mxGeometry y="26" width="230" height="26" as="geometry" />
        </mxCell>
        <mxCell id="6tXLckfgHRD67vPBt4hG-6" value="- fechaInicio:Date" style="text;strokeColor=none;fillColor=none;align=left;verticalAlign=top;spacingLeft=4;spacingRight=4;overflow=hidden;rotatable=0;points=[[0,0.5],[1,0.5]];portConstraint=eastwest;whiteSpace=wrap;html=1;" vertex="1" parent="6tXLckfgHRD67vPBt4hG-1">
          <mxGeometry y="52" width="230" height="26" as="geometry" />
        </mxCell>
        <mxCell id="6tXLckfgHRD67vPBt4hG-7" value="- fechaFin:Date" style="text;strokeColor=none;fillColor=none;align=left;verticalAlign=top;spacingLeft=4;spacingRight=4;overflow=hidden;rotatable=0;points=[[0,0.5],[1,0.5]];portConstraint=eastwest;whiteSpace=wrap;html=1;" vertex="1" parent="6tXLckfgHRD67vPBt4hG-1">
          <mxGeometry y="78" width="230" height="26" as="geometry" />
        </mxCell>
        <mxCell id="6tXLckfgHRD67vPBt4hG-8" value="- puntoEncuentro:String" style="text;strokeColor=none;fillColor=none;align=left;verticalAlign=top;spacingLeft=4;spacingRight=4;overflow=hidden;rotatable=0;points=[[0,0.5],[1,0.5]];portConstraint=eastwest;whiteSpace=wrap;html=1;" vertex="1" parent="6tXLckfgHRD67vPBt4hG-1">
          <mxGeometry y="104" width="230" height="26" as="geometry" />
        </mxCell>
        <mxCell id="6tXLckfgHRD67vPBt4hG-9" value="- costo: Real" style="text;strokeColor=none;fillColor=none;align=left;verticalAlign=top;spacingLeft=4;spacingRight=4;overflow=hidden;rotatable=0;points=[[0,0.5],[1,0.5]];portConstraint=eastwest;whiteSpace=wrap;html=1;" vertex="1" parent="6tXLckfgHRD67vPBt4hG-1">
          <mxGeometry y="130" width="230" height="26" as="geometry" />
        </mxCell>
        <mxCell id="6tXLckfgHRD67vPBt4hG-10" value="- cupoMinimo: Integer" style="text;strokeColor=none;fillColor=none;align=left;verticalAlign=top;spacingLeft=4;spacingRight=4;overflow=hidden;rotatable=0;points=[[0,0.5],[1,0.5]];portConstraint=eastwest;whiteSpace=wrap;html=1;" vertex="1" parent="6tXLckfgHRD67vPBt4hG-1">
          <mxGeometry y="156" width="230" height="26" as="geometry" />
        </mxCell>
        <mxCell id="6tXLckfgHRD67vPBt4hG-11" value="- cupoMaximo: Integer" style="text;strokeColor=none;fillColor=none;align=left;verticalAlign=top;spacingLeft=4;spacingRight=4;overflow=hidden;rotatable=0;points=[[0,0.5],[1,0.5]];portConstraint=eastwest;whiteSpace=wrap;html=1;" vertex="1" parent="6tXLckfgHRD67vPBt4hG-1">
          <mxGeometry y="182" width="230" height="26" as="geometry" />
        </mxCell>
        <mxCell id="6tXLckfgHRD67vPBt4hG-3" value="" style="line;strokeWidth=1;fillColor=none;align=left;verticalAlign=middle;spacingTop=-1;spacingLeft=3;spacingRight=3;rotatable=0;labelPosition=right;points=[];portConstraint=eastwest;strokeColor=inherit;" vertex="1" parent="6tXLckfgHRD67vPBt4hG-1">
          <mxGeometry y="208" width="230" height="8" as="geometry" />
        </mxCell>
        <mxCell id="6tXLckfgHRD67vPBt4hG-77" value="+ &amp;lt;&amp;lt;create&amp;gt;&amp;gt;Excursion(String nombre, Date fechaInicio, Date fechaFin, String puntoEncuentro, double costo, int cupoMinimo, int cupoMaximo): Excursion" style="text;strokeColor=none;fillColor=none;align=left;verticalAlign=top;spacingLeft=4;spacingRight=4;overflow=hidden;rotatable=0;points=[[0,0.5],[1,0.5]];portConstraint=eastwest;whiteSpace=wrap;html=1;" vertex="1" parent="6tXLckfgHRD67vPBt4hG-1">
          <mxGeometry y="216" width="230" height="74" as="geometry" />
        </mxCell>
        <mxCell id="6tXLckfgHRD67vPBt4hG-4" value="+ inscribir(Usuario unUsuario)" style="text;strokeColor=none;fillColor=none;align=left;verticalAlign=top;spacingLeft=4;spacingRight=4;overflow=hidden;rotatable=0;points=[[0,0.5],[1,0.5]];portConstraint=eastwest;whiteSpace=wrap;html=1;" vertex="1" parent="6tXLckfgHRD67vPBt4hG-1">
          <mxGeometry y="290" width="230" height="26" as="geometry" />
        </mxCell>
        <mxCell id="6tXLckfgHRD67vPBt4hG-29" value="+ obtenerInformacion(): String" style="text;strokeColor=none;fillColor=none;align=left;verticalAlign=top;spacingLeft=4;spacingRight=4;overflow=hidden;rotatable=0;points=[[0,0.5],[1,0.5]];portConstraint=eastwest;whiteSpace=wrap;html=1;" vertex="1" parent="6tXLckfgHRD67vPBt4hG-1">
          <mxGeometry y="316" width="230" height="26" as="geometry" />
        </mxCell>
        <mxCell id="6tXLckfgHRD67vPBt4hG-62" value="- getNombre(): String" style="text;strokeColor=none;fillColor=none;align=left;verticalAlign=top;spacingLeft=4;spacingRight=4;overflow=hidden;rotatable=0;points=[[0,0.5],[1,0.5]];portConstraint=eastwest;whiteSpace=wrap;html=1;" vertex="1" parent="6tXLckfgHRD67vPBt4hG-1">
          <mxGeometry y="342" width="230" height="26" as="geometry" />
        </mxCell>
        <mxCell id="6tXLckfgHRD67vPBt4hG-63" value="- getCosto(): Real" style="text;strokeColor=none;fillColor=none;align=left;verticalAlign=top;spacingLeft=4;spacingRight=4;overflow=hidden;rotatable=0;points=[[0,0.5],[1,0.5]];portConstraint=eastwest;whiteSpace=wrap;html=1;" vertex="1" parent="6tXLckfgHRD67vPBt4hG-1">
          <mxGeometry y="368" width="230" height="26" as="geometry" />
        </mxCell>
        <mxCell id="6tXLckfgHRD67vPBt4hG-64" value="- getFechaInicio(): Date" style="text;strokeColor=none;fillColor=none;align=left;verticalAlign=top;spacingLeft=4;spacingRight=4;overflow=hidden;rotatable=0;points=[[0,0.5],[1,0.5]];portConstraint=eastwest;whiteSpace=wrap;html=1;" vertex="1" parent="6tXLckfgHRD67vPBt4hG-1">
          <mxGeometry y="394" width="230" height="26" as="geometry" />
        </mxCell>
        <mxCell id="6tXLckfgHRD67vPBt4hG-65" value="- getFechaFin(): Date" style="text;strokeColor=none;fillColor=none;align=left;verticalAlign=top;spacingLeft=4;spacingRight=4;overflow=hidden;rotatable=0;points=[[0,0.5],[1,0.5]];portConstraint=eastwest;whiteSpace=wrap;html=1;" vertex="1" parent="6tXLckfgHRD67vPBt4hG-1">
          <mxGeometry y="420" width="230" height="26" as="geometry" />
        </mxCell>
        <mxCell id="6tXLckfgHRD67vPBt4hG-68" value="- getPuntoEncuentro(): String" style="text;strokeColor=none;fillColor=none;align=left;verticalAlign=top;spacingLeft=4;spacingRight=4;overflow=hidden;rotatable=0;points=[[0,0.5],[1,0.5]];portConstraint=eastwest;whiteSpace=wrap;html=1;" vertex="1" parent="6tXLckfgHRD67vPBt4hG-1">
          <mxGeometry y="446" width="230" height="26" as="geometry" />
        </mxCell>
        <mxCell id="6tXLckfgHRD67vPBt4hG-66" value="- cantidadInscriptosFaltantesMin(): Integer" style="text;strokeColor=none;fillColor=none;align=left;verticalAlign=top;spacingLeft=4;spacingRight=4;overflow=hidden;rotatable=0;points=[[0,0.5],[1,0.5]];portConstraint=eastwest;whiteSpace=wrap;html=1;" vertex="1" parent="6tXLckfgHRD67vPBt4hG-1">
          <mxGeometry y="472" width="230" height="38" as="geometry" />
        </mxCell>
        <mxCell id="6tXLckfgHRD67vPBt4hG-69" value="- cantidadInscriptosFaltantesMax(): Integer" style="text;strokeColor=none;fillColor=none;align=left;verticalAlign=top;spacingLeft=4;spacingRight=4;overflow=hidden;rotatable=0;points=[[0,0.5],[1,0.5]];portConstraint=eastwest;whiteSpace=wrap;html=1;" vertex="1" parent="6tXLckfgHRD67vPBt4hG-1">
          <mxGeometry y="510" width="230" height="38" as="geometry" />
        </mxCell>
        <mxCell id="6tXLckfgHRD67vPBt4hG-67" value="- mailsInscriptos(): String[*]" style="text;strokeColor=none;fillColor=none;align=left;verticalAlign=top;spacingLeft=4;spacingRight=4;overflow=hidden;rotatable=0;points=[[0,0.5],[1,0.5]];portConstraint=eastwest;whiteSpace=wrap;html=1;" vertex="1" parent="6tXLckfgHRD67vPBt4hG-1">
          <mxGeometry y="548" width="230" height="38" as="geometry" />
        </mxCell>
        <mxCell id="6tXLckfgHRD67vPBt4hG-12" value="&lt;div&gt;&lt;span style=&quot;font-weight: normal;&quot;&gt;&amp;lt;&amp;lt;Context&amp;gt;&amp;gt;&lt;/span&gt;&lt;/div&gt;ExcursionesApp" style="swimlane;fontStyle=1;align=center;verticalAlign=top;childLayout=stackLayout;horizontal=1;startSize=40;horizontalStack=0;resizeParent=1;resizeParentMax=0;resizeLast=0;collapsible=1;marginBottom=0;whiteSpace=wrap;html=1;" vertex="1" parent="1">
          <mxGeometry x="334" y="50" width="160" height="74" as="geometry" />
        </mxCell>
        <mxCell id="6tXLckfgHRD67vPBt4hG-14" value="" style="line;strokeWidth=1;fillColor=none;align=left;verticalAlign=middle;spacingTop=-1;spacingLeft=3;spacingRight=3;rotatable=0;labelPosition=right;points=[];portConstraint=eastwest;strokeColor=inherit;" vertex="1" parent="6tXLckfgHRD67vPBt4hG-12">
          <mxGeometry y="40" width="160" height="8" as="geometry" />
        </mxCell>
        <mxCell id="6tXLckfgHRD67vPBt4hG-15" value="+ a(type): type" style="text;strokeColor=none;fillColor=none;align=left;verticalAlign=top;spacingLeft=4;spacingRight=4;overflow=hidden;rotatable=0;points=[[0,0.5],[1,0.5]];portConstraint=eastwest;whiteSpace=wrap;html=1;" vertex="1" parent="6tXLckfgHRD67vPBt4hG-12">
          <mxGeometry y="48" width="160" height="26" as="geometry" />
        </mxCell>
        <mxCell id="6tXLckfgHRD67vPBt4hG-16" value="Usuario" style="swimlane;fontStyle=1;align=center;verticalAlign=top;childLayout=stackLayout;horizontal=1;startSize=26;horizontalStack=0;resizeParent=1;resizeParentMax=0;resizeLast=0;collapsible=1;marginBottom=0;whiteSpace=wrap;html=1;" vertex="1" parent="1">
          <mxGeometry x="510" y="200" width="230" height="180" as="geometry" />
        </mxCell>
        <mxCell id="6tXLckfgHRD67vPBt4hG-21" value="- nombre:String" style="text;strokeColor=none;fillColor=none;align=left;verticalAlign=top;spacingLeft=4;spacingRight=4;overflow=hidden;rotatable=0;points=[[0,0.5],[1,0.5]];portConstraint=eastwest;whiteSpace=wrap;html=1;" vertex="1" parent="6tXLckfgHRD67vPBt4hG-16">
          <mxGeometry y="26" width="230" height="26" as="geometry" />
        </mxCell>
        <mxCell id="6tXLckfgHRD67vPBt4hG-27" value="- apellido:String" style="text;strokeColor=none;fillColor=none;align=left;verticalAlign=top;spacingLeft=4;spacingRight=4;overflow=hidden;rotatable=0;points=[[0,0.5],[1,0.5]];portConstraint=eastwest;whiteSpace=wrap;html=1;" vertex="1" parent="6tXLckfgHRD67vPBt4hG-16">
          <mxGeometry y="52" width="230" height="26" as="geometry" />
        </mxCell>
        <mxCell id="6tXLckfgHRD67vPBt4hG-28" value="- email:String" style="text;strokeColor=none;fillColor=none;align=left;verticalAlign=top;spacingLeft=4;spacingRight=4;overflow=hidden;rotatable=0;points=[[0,0.5],[1,0.5]];portConstraint=eastwest;whiteSpace=wrap;html=1;" vertex="1" parent="6tXLckfgHRD67vPBt4hG-16">
          <mxGeometry y="78" width="230" height="26" as="geometry" />
        </mxCell>
        <mxCell id="6tXLckfgHRD67vPBt4hG-18" value="" style="line;strokeWidth=1;fillColor=none;align=left;verticalAlign=middle;spacingTop=-1;spacingLeft=3;spacingRight=3;rotatable=0;labelPosition=right;points=[];portConstraint=eastwest;strokeColor=inherit;" vertex="1" parent="6tXLckfgHRD67vPBt4hG-16">
          <mxGeometry y="104" width="230" height="8" as="geometry" />
        </mxCell>
        <mxCell id="6tXLckfgHRD67vPBt4hG-19" value="+ &amp;lt;&amp;lt;create&amp;gt;&amp;gt;Usuario(String nombre, String, apellido, String email): Usuario" style="text;strokeColor=none;fillColor=none;align=left;verticalAlign=top;spacingLeft=4;spacingRight=4;overflow=hidden;rotatable=0;points=[[0,0.5],[1,0.5]];portConstraint=eastwest;whiteSpace=wrap;html=1;" vertex="1" parent="6tXLckfgHRD67vPBt4hG-16">
          <mxGeometry y="112" width="230" height="38" as="geometry" />
        </mxCell>
        <mxCell id="6tXLckfgHRD67vPBt4hG-61" value="+ getEmail():String" style="text;strokeColor=none;fillColor=none;align=left;verticalAlign=top;spacingLeft=4;spacingRight=4;overflow=hidden;rotatable=0;points=[[0,0.5],[1,0.5]];portConstraint=eastwest;whiteSpace=wrap;html=1;" vertex="1" parent="6tXLckfgHRD67vPBt4hG-16">
          <mxGeometry y="150" width="230" height="30" as="geometry" />
        </mxCell>
        <mxCell id="6tXLckfgHRD67vPBt4hG-30" value="excursiones*" style="endArrow=block;endFill=1;html=1;align=left;verticalAlign=top;rounded=0;edgeStyle=elbowEdgeStyle;entryX=0.5;entryY=0;entryDx=0;entryDy=0;" edge="1" parent="1" source="6tXLckfgHRD67vPBt4hG-12" target="6tXLckfgHRD67vPBt4hG-1">
          <mxGeometry x="0.4697" relative="1" as="geometry">
            <mxPoint x="340" y="180" as="sourcePoint" />
            <mxPoint x="500" y="180" as="targetPoint" />
            <Array as="points">
              <mxPoint x="165" y="150" />
            </Array>
            <mxPoint as="offset" />
          </mxGeometry>
        </mxCell>
        <mxCell id="6tXLckfgHRD67vPBt4hG-32" value="usuarios*" style="endArrow=block;endFill=1;html=1;align=left;verticalAlign=top;rounded=0;edgeStyle=elbowEdgeStyle;entryX=0.5;entryY=0;entryDx=0;entryDy=0;exitX=1;exitY=0.5;exitDx=0;exitDy=0;" edge="1" parent="1" source="6tXLckfgHRD67vPBt4hG-12" target="6tXLckfgHRD67vPBt4hG-16">
          <mxGeometry x="0.4719" relative="1" as="geometry">
            <mxPoint x="344" y="90" as="sourcePoint" />
            <mxPoint x="200" y="210" as="targetPoint" />
            <Array as="points">
              <mxPoint x="625" y="150" />
            </Array>
            <mxPoint as="offset" />
          </mxGeometry>
        </mxCell>
        <mxCell id="6tXLckfgHRD67vPBt4hG-34" style="edgeStyle=orthogonalEdgeStyle;rounded=0;orthogonalLoop=1;jettySize=auto;html=1;exitX=1;exitY=0.5;exitDx=0;exitDy=0;" edge="1" parent="1" source="6tXLckfgHRD67vPBt4hG-6" target="6tXLckfgHRD67vPBt4hG-27">
          <mxGeometry relative="1" as="geometry" />
        </mxCell>
        <mxCell id="6tXLckfgHRD67vPBt4hG-36" value="inscriptos*" style="edgeLabel;html=1;align=center;verticalAlign=middle;resizable=0;points=[];" vertex="1" connectable="0" parent="6tXLckfgHRD67vPBt4hG-34">
          <mxGeometry x="-0.3374" y="4" relative="1" as="geometry">
            <mxPoint x="44" y="-9" as="offset" />
          </mxGeometry>
        </mxCell>
        <mxCell id="6tXLckfgHRD67vPBt4hG-35" style="edgeStyle=orthogonalEdgeStyle;rounded=0;orthogonalLoop=1;jettySize=auto;html=1;exitX=1;exitY=0.5;exitDx=0;exitDy=0;entryX=0;entryY=0.5;entryDx=0;entryDy=0;" edge="1" parent="1" source="6tXLckfgHRD67vPBt4hG-7" target="6tXLckfgHRD67vPBt4hG-28">
          <mxGeometry relative="1" as="geometry" />
        </mxCell>
        <mxCell id="6tXLckfgHRD67vPBt4hG-37" value="listaEspera*" style="edgeLabel;html=1;align=center;verticalAlign=middle;resizable=0;points=[];" vertex="1" connectable="0" parent="6tXLckfgHRD67vPBt4hG-35">
          <mxGeometry x="0.0017" y="-3" relative="1" as="geometry">
            <mxPoint x="5" y="-14" as="offset" />
          </mxGeometry>
        </mxCell>
        <mxCell id="6tXLckfgHRD67vPBt4hG-38" value="&lt;span style=&quot;font-weight: normal;&quot;&gt;&amp;lt;&amp;lt;StrategyInterface&amp;gt;&amp;gt;&lt;/span&gt;&lt;br&gt;Estado" style="swimlane;fontStyle=1;align=center;verticalAlign=top;childLayout=stackLayout;horizontal=1;startSize=40;horizontalStack=0;resizeParent=1;resizeParentMax=0;resizeLast=0;collapsible=1;marginBottom=0;whiteSpace=wrap;html=1;" vertex="1" parent="1">
          <mxGeometry x="410" y="490" width="240" height="90" as="geometry" />
        </mxCell>
        <mxCell id="6tXLckfgHRD67vPBt4hG-40" value="" style="line;strokeWidth=1;fillColor=none;align=left;verticalAlign=middle;spacingTop=-1;spacingLeft=3;spacingRight=3;rotatable=0;labelPosition=right;points=[];portConstraint=eastwest;strokeColor=inherit;" vertex="1" parent="6tXLckfgHRD67vPBt4hG-38">
          <mxGeometry y="40" width="240" height="8" as="geometry" />
        </mxCell>
        <mxCell id="6tXLckfgHRD67vPBt4hG-55" value="+ obtenerInformacion(Excursion excursion): String" style="text;strokeColor=none;fillColor=none;align=left;verticalAlign=top;spacingLeft=4;spacingRight=4;overflow=hidden;rotatable=0;points=[[0,0.5],[1,0.5]];portConstraint=eastwest;whiteSpace=wrap;html=1;" vertex="1" parent="6tXLckfgHRD67vPBt4hG-38">
          <mxGeometry y="48" width="240" height="42" as="geometry" />
        </mxCell>
        <mxCell id="6tXLckfgHRD67vPBt4hG-42" value="" style="endArrow=open;html=1;endSize=12;startArrow=diamondThin;startSize=14;startFill=1;align=left;verticalAlign=bottom;rounded=0;edgeStyle=orthogonalEdgeStyle;" edge="1" parent="1" source="6tXLckfgHRD67vPBt4hG-1" target="6tXLckfgHRD67vPBt4hG-38">
          <mxGeometry x="-1" y="3" relative="1" as="geometry">
            <mxPoint x="170" y="668" as="sourcePoint" />
            <mxPoint x="480" y="580" as="targetPoint" />
          </mxGeometry>
        </mxCell>
        <mxCell id="6tXLckfgHRD67vPBt4hG-60" value="estado" style="edgeLabel;html=1;align=center;verticalAlign=middle;resizable=0;points=[];" vertex="1" connectable="0" parent="6tXLckfgHRD67vPBt4hG-42">
          <mxGeometry x="-0.0927" y="-1" relative="1" as="geometry">
            <mxPoint as="offset" />
          </mxGeometry>
        </mxCell>
        <mxCell id="6tXLckfgHRD67vPBt4hG-43" value="&lt;span style=&quot;font-weight: normal;&quot;&gt;&amp;lt;&amp;lt;ConcreteStrategyA&amp;gt;&amp;gt;&lt;/span&gt;&lt;br&gt;Provisoria" style="swimlane;fontStyle=1;align=center;verticalAlign=top;childLayout=stackLayout;horizontal=1;startSize=40;horizontalStack=0;resizeParent=1;resizeParentMax=0;resizeLast=0;collapsible=1;marginBottom=0;whiteSpace=wrap;html=1;" vertex="1" parent="1">
          <mxGeometry x="385" y="620" width="290" height="80" as="geometry" />
        </mxCell>
        <mxCell id="6tXLckfgHRD67vPBt4hG-44" value="" style="line;strokeWidth=1;fillColor=none;align=left;verticalAlign=middle;spacingTop=-1;spacingLeft=3;spacingRight=3;rotatable=0;labelPosition=right;points=[];portConstraint=eastwest;strokeColor=inherit;" vertex="1" parent="6tXLckfgHRD67vPBt4hG-43">
          <mxGeometry y="40" width="290" height="8" as="geometry" />
        </mxCell>
        <mxCell id="6tXLckfgHRD67vPBt4hG-56" value="+ obtenerInformacion(Excursion excursion): String" style="text;strokeColor=none;fillColor=none;align=left;verticalAlign=top;spacingLeft=4;spacingRight=4;overflow=hidden;rotatable=0;points=[[0,0.5],[1,0.5]];portConstraint=eastwest;whiteSpace=wrap;html=1;" vertex="1" parent="6tXLckfgHRD67vPBt4hG-43">
          <mxGeometry y="48" width="290" height="32" as="geometry" />
        </mxCell>
        <mxCell id="6tXLckfgHRD67vPBt4hG-46" value="&lt;span style=&quot;font-weight: normal;&quot;&gt;&amp;lt;&amp;lt;ConcreteStrategyB&amp;gt;&amp;gt;&lt;/span&gt;&lt;br&gt;Definitiva" style="swimlane;fontStyle=1;align=center;verticalAlign=top;childLayout=stackLayout;horizontal=1;startSize=40;horizontalStack=0;resizeParent=1;resizeParentMax=0;resizeLast=0;collapsible=1;marginBottom=0;whiteSpace=wrap;html=1;" vertex="1" parent="1">
          <mxGeometry x="720" y="620" width="290" height="80" as="geometry" />
        </mxCell>
        <mxCell id="6tXLckfgHRD67vPBt4hG-47" value="" style="line;strokeWidth=1;fillColor=none;align=left;verticalAlign=middle;spacingTop=-1;spacingLeft=3;spacingRight=3;rotatable=0;labelPosition=right;points=[];portConstraint=eastwest;strokeColor=inherit;" vertex="1" parent="6tXLckfgHRD67vPBt4hG-46">
          <mxGeometry y="40" width="290" height="8" as="geometry" />
        </mxCell>
        <mxCell id="6tXLckfgHRD67vPBt4hG-57" value="+ obtenerInformacion(Excursion excursion): String" style="text;strokeColor=none;fillColor=none;align=left;verticalAlign=top;spacingLeft=4;spacingRight=4;overflow=hidden;rotatable=0;points=[[0,0.5],[1,0.5]];portConstraint=eastwest;whiteSpace=wrap;html=1;" vertex="1" parent="6tXLckfgHRD67vPBt4hG-46">
          <mxGeometry y="48" width="290" height="32" as="geometry" />
        </mxCell>
        <mxCell id="6tXLckfgHRD67vPBt4hG-49" value="&lt;span style=&quot;font-weight: normal;&quot;&gt;&amp;lt;&amp;lt;ConcreteStrategyC&amp;gt;&amp;gt;&lt;/span&gt;&lt;br&gt;Completa" style="swimlane;fontStyle=1;align=center;verticalAlign=top;childLayout=stackLayout;horizontal=1;startSize=40;horizontalStack=0;resizeParent=1;resizeParentMax=0;resizeLast=0;collapsible=1;marginBottom=0;whiteSpace=wrap;html=1;" vertex="1" parent="1">
          <mxGeometry x="720" y="500" width="290" height="80" as="geometry" />
        </mxCell>
        <mxCell id="6tXLckfgHRD67vPBt4hG-50" value="" style="line;strokeWidth=1;fillColor=none;align=left;verticalAlign=middle;spacingTop=-1;spacingLeft=3;spacingRight=3;rotatable=0;labelPosition=right;points=[];portConstraint=eastwest;strokeColor=inherit;" vertex="1" parent="6tXLckfgHRD67vPBt4hG-49">
          <mxGeometry y="40" width="290" height="8" as="geometry" />
        </mxCell>
        <mxCell id="6tXLckfgHRD67vPBt4hG-58" value="+ obtenerInformacion(Excursion excursion): String" style="text;strokeColor=none;fillColor=none;align=left;verticalAlign=top;spacingLeft=4;spacingRight=4;overflow=hidden;rotatable=0;points=[[0,0.5],[1,0.5]];portConstraint=eastwest;whiteSpace=wrap;html=1;" vertex="1" parent="6tXLckfgHRD67vPBt4hG-49">
          <mxGeometry y="48" width="290" height="32" as="geometry" />
        </mxCell>
        <mxCell id="6tXLckfgHRD67vPBt4hG-52" value="" style="endArrow=block;dashed=1;endFill=0;endSize=12;html=1;rounded=0;" edge="1" parent="1" source="6tXLckfgHRD67vPBt4hG-43" target="6tXLckfgHRD67vPBt4hG-38">
          <mxGeometry width="160" relative="1" as="geometry">
            <mxPoint x="290" y="860" as="sourcePoint" />
            <mxPoint x="480" y="680" as="targetPoint" />
          </mxGeometry>
        </mxCell>
        <mxCell id="6tXLckfgHRD67vPBt4hG-53" value="" style="endArrow=block;dashed=1;endFill=0;endSize=12;html=1;rounded=0;" edge="1" parent="1" source="6tXLckfgHRD67vPBt4hG-46" target="6tXLckfgHRD67vPBt4hG-38">
          <mxGeometry width="160" relative="1" as="geometry">
            <mxPoint x="440" y="687" as="sourcePoint" />
            <mxPoint x="260" y="779" as="targetPoint" />
          </mxGeometry>
        </mxCell>
        <mxCell id="6tXLckfgHRD67vPBt4hG-54" value="" style="endArrow=block;dashed=1;endFill=0;endSize=12;html=1;rounded=0;" edge="1" parent="1" source="6tXLckfgHRD67vPBt4hG-49" target="6tXLckfgHRD67vPBt4hG-38">
          <mxGeometry width="160" relative="1" as="geometry">
            <mxPoint x="450" y="697" as="sourcePoint" />
            <mxPoint x="250" y="811" as="targetPoint" />
          </mxGeometry>
        </mxCell>
        <mxCell id="6tXLckfgHRD67vPBt4hG-76" style="rounded=0;orthogonalLoop=1;jettySize=auto;html=1;" edge="1" parent="1" source="6tXLckfgHRD67vPBt4hG-71" target="6tXLckfgHRD67vPBt4hG-1">
          <mxGeometry relative="1" as="geometry" />
        </mxCell>
        <mxCell id="6tXLckfgHRD67vPBt4hG-71" value="&lt;i&gt;Client&lt;/i&gt;" style="swimlane;fontStyle=0;childLayout=stackLayout;horizontal=1;startSize=26;fillColor=none;horizontalStack=0;resizeParent=1;resizeParentMax=0;resizeLast=0;collapsible=1;marginBottom=0;whiteSpace=wrap;html=1;" vertex="1" parent="1">
          <mxGeometry x="20" y="20" width="140" height="52" as="geometry" />
        </mxCell>
        <mxCell id="6tXLckfgHRD67vPBt4hG-75" value="dispatch" style="html=1;verticalAlign=bottom;endArrow=block;curved=0;rounded=0;" edge="1" parent="1" source="6tXLckfgHRD67vPBt4hG-71" target="6tXLckfgHRD67vPBt4hG-12">
          <mxGeometry width="80" relative="1" as="geometry">
            <mxPoint x="550" y="270" as="sourcePoint" />
            <mxPoint x="630" y="270" as="targetPoint" />
          </mxGeometry>
        </mxCell>
      </root>
    </mxGraphModel>
  </diagram>
</mxfile>
